PathFileType	4	(X/Y/Z)	C:/Users/beibeiliu/ov580/test_trc\sequence.12_training_dense_left.trc
DataRate	CameraRate	NumFrames	NumMarkers	Units	OrigDataRate	OrigDataStartFrame	OrigNumFrames
120	120	21	19	mm	120	1	324
Frame#	Time	ThumbCMC			ThumbMCP			ThumbIP			ThumbTip			IndexMCP			IndexPIP			IndexTip			MiddleMCP			MiddlePIP			MiddleTip			RingMCP			RingPIP			RingTip			PinkyMCP			PinkyPIP			PinkyTip			BackHand1			BackHand2			BackHand3	
		X0	Y0	Z0	X1	Y1	Z1	X2	Y2	Z2	X3	Y3	Z3	X4	Y4	Z4	X5	Y5	Z5	X6	Y6	Z6	X7	Y7	Z7	X8	Y8	Z8	X9	Y9	Z9	X10	Y10	Z10	X11	Y11	Z11	X12	Y12	Z12	X13	Y13	Z13	X14	Y14	Z14	X15	Y15	Z15	X16	Y16	Z16	X17	Y17	Z17	X18	Y18	Z18	
0	0	-169.431	-5.17128	19.1469	-157.17	-27.4903	16.6848	-137.775	-39.2049	12.4224	-121.198	-53.234	6.30084	-171.722	-13.0461	-46.5673	-160.849	-18.964	-66.0865	-149.813	-26.9534	-90.1227	-195.284	-9.3361	-55.75	-196.082	-10.2962	-81.0168	-198.337	-15.5417	-106.15	-214.739	-12.6089	-51.9436	-217.949	-14.4511	-70.692	-221.372	-19.0194	-91.3545	-240.792	-23.0304	-37.6278	-246.319	-30.2558	-48.8003	-253.131	-35.198	-67.4501	-215.47	3.20059	-16.8794	-219.047	16.9553	10.581	-191.767	11.8537	-3.28206	
1	0.00833333	-172.202	-9.60471	17.4422	-157.823	-30.9663	15.837	-144.146	-44.5586	9.65698	-124.681	-57.6154	6.74322	-173.327	-16.076	-47.8416	-163.041	-22.5382	-70.3728	-153.673	-31.2344	-91.2094	-196.259	-11.8692	-57.6994	-197.071	-12.8013	-78.0328	-200.737	-18.8453	-105.693	-220.784	-14.9535	-49.0511	-219.064	-18.3244	-70.5129	-223.546	-22.6009	-95.7267	-238.641	-24.3343	-33.9916	-250.919	-34.2258	-51.839	-257.562	-36.2842	-64.2881	-219.53	0.727026	-12.8436	-218.989	14.5425	8.07347	-192.091	7.75624	-4.12726	
2	0.0166667	-173.929	-11.544	19.398	-162.28	-32.8766	17.0164	-141.541	-49.0865	9.81194	-130.555	-58.9761	8.02592	-168.365	-19.2568	-49.453	-164.969	-25.1298	-68.0146	-152.403	-32.1829	-86.1054	-199.563	-13.7427	-54.1751	-198.366	-15.4982	-78.9569	-198.696	-20.3757	-103.782	-216.445	-17.1145	-47.19	-220.977	-21.2675	-74.7143	-225.565	-25.7078	-94.4655	-241.594	-25.5086	-34.7079	-251.358	-35.5041	-49.4513	-257.408	-41.0321	-64.3275	-220.877	-0.753654	-13.5812	-219.251	10.9605	8.59728	-194.877	6.46155	-1.45206	
3	0.025	-170.5	-15.263	15.7659	-162.431	-36.5431	14.2729	-144.963	-50.2173	9.953	-131.488	-60.3349	9.44339	-171.606	-20.9349	-49.9467	-160.391	-26.8903	-70.2174	-158.392	-34.166	-86.8884	-197.529	-15.4447	-53.1388	-198.97	-17.2157	-81.4071	-201.703	-22.4179	-104.825	-216.628	-18.214	-50.2505	-221.94	-22.3429	-73.7817	-222.916	-26.4451	-90.3319	-237.25	-26.9918	-35.2782	-247.954	-35.3085	-51.8665	-258.541	-40.1167	-65.2561	-219.185	-4.02972	-16.1431	-223.278	9.64237	6.48625	-193.358	4.51122	-4.5349	
4	0.0333333	-175.981	-14.4576	17.6551	-161.074	-38.5475	13.3002	-144.115	-50.3083	11.9948	-129.178	-62.4067	9.29614	-170.213	-20.5895	-46.4162	-163.611	-26.2619	-66.4742	-154.169	-33.7214	-85.7236	-195.442	-15.1413	-59.1864	-196.271	-19.4747	-83.9592	-199.095	-22.8917	-103.847	-221.464	-20.1412	-49.6462	-220.673	-23.3354	-75.8834	-225.085	-29.0367	-95.0617	-243.512	-28.8451	-35.8948	-246.554	-36.4851	-51.6534	-258.894	-41.6984	-66.2447	-220.33	-3.20833	-16.6747	-217.866	8.87471	5.20651	-194.579	2.60536	-4.70235	
5	0.0416667	-174.803	-17.3276	13.8436	-162.484	-38.8038	12.6997	-144.673	-53.55	7.24076	-128.965	-64.8607	7.67749	-169.831	-21.4065	-45.4369	-165.115	-28.9279	-71.2832	-154.747	-35.1655	-86.216	-199.47	-17.1327	-58.7263	-196.85	-19.2353	-81.8065	-201.852	-24.8751	-105.358	-221.991	-20.775	-50.2388	-223.689	-24.5467	-75.8386	-226.17	-29.2581	-92.4296	-241.41	-28.6718	-37.366	-246.155	-36.7589	-50.4142	-258.46	-44.8003	-65.1659	-217.475	-3.00623	-13.3864	-220.626	8.0048	6.73823	-191.577	2.34083	-3.34318	
6	0.05	-171.877	-18.0868	14.1007	-159.732	-40.6104	12.7836	-148.434	-54.4137	9.56415	-132.565	-67.2102	5.56942	-171.453	-22.7341	-51.9759	-162.065	-28.4134	-67.1165	-155.991	-36.1588	-87.8807	-199.505	-17.2743	-59.9924	-195.808	-19.2022	-80.3458	-198.858	-24.6934	-108.246	-216.31	-20.9723	-49.3455	-221.357	-24.4406	-73.9665	-221.787	-29.1227	-97.5918	-242.934	-29.3606	-37.5802	-250.047	-39.6003	-54.8476	-258.165	-45.3617	-67.9832	-215.802	-5.14876	-12.9787	-221.476	8.27255	7.46738	-194.063	3.74164	-3.6581	
7	0.0583333	-171.948	-16.1735	17.4926	-160.922	-40.2325	14.5278	-142.916	-56.6673	7.74935	-130.184	-69.381	6.54247	-169.505	-21.8456	-50.9172	-158.861	-29.7122	-71.9617	-155.472	-36.0116	-89.1788	-196.264	-17.2223	-60.2989	-195.423	-19.5029	-82.0289	-193.931	-26.7188	-111.355	-214.99	-20.3879	-51.5743	-222.532	-24.5749	-75.3148	-222.859	-29.8421	-94.7044	-242.559	-29.356	-41.3379	-246.503	-38.0938	-53.505	-257.232	-47.6138	-71.4357	-219.906	-4.52398	-14.566	-219.872	7.41134	5.07613	-189.674	3.68593	-4.83716	
8	0.0666667	-170.8	-19.1586	15.0817	-159.58	-43.0304	11.7824	-146.448	-57.7266	6.45611	-130.066	-73.6884	1.8056	-168.413	-21.6828	-48.9092	-158.18	-29.0585	-73.6394	-147.584	-38.121	-92.1691	-193.83	-16.9339	-57.2709	-195.939	-19.6898	-86.1573	-194.47	-26.2179	-109.433	-215.427	-20.2532	-53.8076	-220.081	-24.5587	-75.6989	-217.999	-31.3716	-98.1938	-239.384	-28.4249	-38.0588	-244.128	-37.9397	-53.4261	-255.208	-46.2609	-70.2454	-215.407	-5.88915	-16.201	-219.295	7.29083	7.60814	-190.242	1.27163	-3.6562	
9	0.075	-171.564	-18.0437	15.5891	-154.961	-42.6739	13.7789	-141.676	-55.988	9.63175	-132.64	-72.613	2.98491	-165.347	-21.9592	-49.8306	-160.167	-27.042	-70.3217	-150.263	-35.7955	-91.2991	-190.394	-16.3569	-59.8129	-189.643	-18.5245	-84.1976	-191.509	-25.6414	-108.185	-210.454	-19.9676	-55.5708	-218.881	-23.7161	-74.5713	-217.656	-31.5577	-96.5736	-233.118	-27.9836	-39.5604	-244.435	-38.7393	-55.7064	-251.111	-45.9447	-70.7272	-216.437	-4.72326	-16.4337	-216.601	6.96846	3.32123	-187.622	1.98948	-3.14058	
10	0.0833333	-167.854	-18.8648	13.9672	-156.137	-42.1302	12.4973	-141.715	-58.0229	6.95852	-128.094	-73.9461	1.88157	-166.2	-22.5007	-51.6511	-156.086	-27.7528	-70.3687	-149.04	-36.6615	-93.4007	-190.386	-16.363	-61.7648	-189.239	-19.2227	-83.2495	-193.842	-25.5047	-108.266	-215.546	-20.4519	-53.3936	-216.969	-23.8516	-75.2733	-215.701	-30.8033	-98.4988	-232.253	-27.7093	-40.1442	-242.665	-36.8372	-56.4623	-249.79	-44.9002	-70.9606	-215.069	-4.44698	-16.2673	-214.696	5.67046	2.75788	-188.213	2.51364	-5.01827	
11	0.0916667	-171.145	-18.252	15.8528	-153.626	-41.4569	14.9689	-140.027	-57.0397	8.41956	-131.048	-72.7522	1.3915	-163.381	-22.2908	-51.4948	-154.206	-28.1582	-72.4605	-148.844	-34.6453	-89.8949	-189.348	-17.0611	-59.0244	-190.251	-19.2297	-85.5367	-190.816	-26.0839	-111.971	-212.647	-20.5075	-51.8095	-212.23	-24.2322	-75.07	-216.062	-29.7538	-95.2768	-232.049	-28.6083	-45.6125	-238.888	-36.1735	-55.5675	-251.682	-44.2948	-72.0257	-213.321	-3.49573	-18.8067	-216.128	7.65361	3.64542	-184.257	-0.152676	-5.44971	
12	0.1	-169.509	-19.435	11.6229	-157.786	-43.1225	11.4393	-139.398	-58.0659	8.91626	-126.903	-72.5793	3.24531	-161.446	-22.6143	-52.1709	-151.815	-27.9488	-70.7372	-146.824	-34.1229	-88.2811	-186.514	-17.6744	-60.9489	-188.591	-20.6759	-86.8365	-190.681	-25.5963	-108.392	-213.348	-20.3047	-53.4373	-210.386	-25.1062	-78.3981	-214.211	-31.0043	-97.0647	-233.241	-28.3773	-40.258	-239.552	-36.6527	-54.3052	-249.576	-43.9882	-73.9239	-208.436	-6.69049	-18.9405	-213.248	7.04739	6.28194	-186.155	0.218639	-3.58001	
13	0.108333	-168.501	-19.0401	16.198	-152.718	-43.2791	12.6569	-137.767	-58.2676	6.68265	-126.291	-74.1275	1.85657	-165.902	-22.4257	-50.1445	-154.98	-26.6652	-69.206	-145.531	-34.9685	-92.047	-187.787	-17.1227	-62.5839	-186.345	-21.3293	-86.3786	-187.604	-27.4105	-107.892	-210.183	-20.8265	-55.6192	-211.821	-25.1672	-74.7067	-212.511	-31.4713	-95.551	-231.5	-29.6792	-45.4861	-241.832	-39.8658	-58.3297	-247.7	-44.8335	-73.6825	-209.221	-7.29749	-18.8451	-212.476	7.3003	3.40833	-185.879	3.03864	-2.60062	
14	0.116667	-166.207	-18.5022	15.5127	-154.691	-41.2673	14.1568	-139.085	-57.5155	8.3184	-128.741	-73.0785	1.02142	-164.902	-22.1133	-52.8939	-156.048	-27.108	-71.314	-146.243	-35.2458	-91.4769	-186.65	-18.0772	-59.1644	-185.426	-21.6444	-84.7757	-188.956	-30.6003	-112.732	-209.532	-21.2323	-54.6461	-211.894	-25.8239	-77.0485	-211.315	-32.5704	-94.8422	-235.311	-30.245	-43.3998	-240.488	-37.5683	-54.2265	-250.722	-45.2908	-74.0102	-213.376	-4.86454	-16.9457	-211.915	4.60232	4.14772	-186.781	1.55478	-4.99209	
15	0.125	-166.903	-19.2044	15.214	-155.013	-43.4479	10.8197	-137.82	-59.8472	3.57124	-129.065	-73.1221	2.32352	-163.249	-21.2752	-50.6706	-152.326	-26.4189	-70.5894	-147.058	-33.9536	-94.9498	-189.913	-17.313	-58.6847	-184.701	-22.1671	-87.7999	-187.426	-29.6696	-109.54	-210.937	-20.8122	-53.1098	-210.54	-26.3927	-75.5374	-213.316	-33.648	-95.9203	-235.23	-29.6372	-42.1229	-238.626	-38.4216	-56.3016	-246.591	-45.2754	-74.203	-210.635	-6.52863	-18.8262	-212.529	5.82341	4.72317	-184.193	2.48468	-7.39313	
16	0.133333	-166.979	-18.1076	16.1349	-153.232	-45.028	9.04221	-141.731	-59.1826	3.81924	-128.293	-75.2223	-3.05669	-165.193	-20.825	-49.409	-155.794	-27.7405	-74.0648	-147.742	-33.0051	-92.1357	-191.821	-18.3244	-58.0028	-189.646	-22.3996	-86.2671	-189.568	-31.2169	-109.049	-208.261	-21.8279	-55.1578	-213.366	-26.7858	-78.3015	-213.944	-34.8542	-100.136	-234.051	-30.2509	-43.7368	-238.927	-37.9112	-55.8788	-245.872	-45.0921	-72.0878	-212.276	-3.9813	-15.1148	-211.666	7.1131	2.7871	-186.479	2.50299	-8.05035	
17	0.141667	-165.883	-18.7327	14.4443	-157.329	-42.4367	11.7225	-143.421	-58.8462	4.78752	-129.839	-75.0852	-1.39694	-163.026	-19.6678	-48.3788	-156.346	-26.4766	-74.4801	-148.174	-32.8409	-91.8597	-190.255	-17.0411	-63.0671	-187.209	-22.2654	-85.6233	-190.235	-33.9081	-113.06	-212.01	-20.0724	-56.0752	-213.854	-25.1615	-76.3886	-209.564	-35.1746	-98.3506	-231.916	-27.5362	-42.7005	-241.335	-37.4766	-58.339	-245.799	-42.4419	-71.0608	-210.55	-3.44528	-18.0368	-214.613	6.99386	2.37243	-188.855	3.25105	-6.44177	
18	0.15	-165.711	-19.3672	13.0825	-159.102	-42.0738	10.5385	-141.281	-61.2736	2.39308	-134.378	-75.5085	-4.73655	-165.123	-19.7377	-48.7674	-155.345	-24.38	-72.5292	-150.528	-32.3552	-93.6317	-189.514	-15.6106	-60.1247	-190.161	-22.4606	-89.7584	-190.733	-31.4982	-108.718	-211.523	-18.8706	-54.2335	-215.038	-24.8491	-79.2388	-212.291	-34.157	-101.199	-233.197	-27.1005	-42.6768	-239.16	-36.2853	-60.3303	-244.222	-39.9815	-73.18	-210.298	-3.08937	-16.0101	-215.261	9.37553	4.96054	-190.098	1.77048	-4.74932	
19	0.158333	-169.306	-19.1906	13.7259	-155.809	-42.7383	11.4655	-143.717	-58.9778	3.19072	-131.936	-75.0426	-2.69258	-165.976	-17.959	-53.9125	-157.425	-23.0994	-70.7997	-150.375	-32.7003	-93.2781	-190.116	-14.8636	-63.6072	-185.485	-21.5711	-87.0335	-189.641	-32.6254	-109.22	-213.61	-18.3786	-58.236	-212.51	-23.906	-76.7429	-211.575	-32.7603	-100.366	-234.603	-25.1786	-41.2051	-241.083	-33.3357	-56.6051	-248.224	-39.3941	-72.6966	-211.126	-1.27643	-19.1623	-214.321	7.21976	7.96112	-184.928	3.19873	-3.00698	
20	0.166667	-171.711	-17.8432	15.472	-155.724	-43.9756	9.0217	-141.909	-59.9202	1.38533	-130.773	-76.0988	-3.89525	-167.543	-18.1763	-49.3014	-158.347	-24.2973	-74.995	-150.088	-33.3483	-95.4284	-193.163	-15.8141	-60.62	-186.447	-20.9894	-86.0235	-189.436	-33.5451	-111.037	-213.531	-18.7134	-55.0077	-215.035	-23.7909	-81.5507	-211.478	-31.647	-98.6233	-234.549	-25.7409	-42.0574	-241.608	-33.7262	-57.0583	-246.395	-37.6512	-74.2697	-212.307	-3.74688	-17.2747	-214.196	6.19589	4.19951	-189.08	2.66015	-7.22606	
